<mxfile host="65bd71144e">
    <diagram id="4fcICVXPNlyPL3_uZk1n" name="Страница 1">
        <mxGraphModel dx="919" dy="613" grid="1" gridSize="10" guides="1" tooltips="1" connect="1" arrows="1" fold="1" page="1" pageScale="1" pageWidth="827" pageHeight="1169" math="0" shadow="0">
            <root>
                <mxCell id="0"/>
                <mxCell id="1" parent="0"/>
                <mxCell id="7" value="" style="edgeStyle=none;html=1;" parent="1" source="5" target="6" edge="1">
                    <mxGeometry relative="1" as="geometry"/>
                </mxCell>
                <mxCell id="5" value="START&amp;nbsp;" style="html=1;dashed=0;whitespace=wrap;shape=mxgraph.dfd.start;rounded=1;glass=0;sketch=0;" parent="1" vertex="1">
                    <mxGeometry x="350" y="40" width="80" height="30" as="geometry"/>
                </mxCell>
                <mxCell id="11" value="" style="edgeStyle=none;html=1;" edge="1" parent="1" source="6" target="10">
                    <mxGeometry relative="1" as="geometry"/>
                </mxCell>
                <mxCell id="6" value="Массив A&lt;br&gt;Кол-во объектов (t)&lt;br&gt;проядок индекса (i)&lt;br&gt;длина объектов массива (d)&amp;nbsp;&lt;br&gt;Массив B" style="shape=parallelogram;perimeter=parallelogramPerimeter;whiteSpace=wrap;html=1;fixedSize=1;dashed=0;rounded=1;glass=0;sketch=0;" parent="1" vertex="1">
                    <mxGeometry x="300" y="120" width="200" height="100" as="geometry"/>
                </mxCell>
                <mxCell id="13" value="" style="edgeStyle=none;html=1;" edge="1" parent="1" source="10" target="12">
                    <mxGeometry relative="1" as="geometry"/>
                </mxCell>
                <mxCell id="23" value="" style="edgeStyle=none;html=1;exitX=1;exitY=0.5;exitDx=0;exitDy=0;entryX=0.5;entryY=0;entryDx=0;entryDy=0;" edge="1" parent="1" source="10" target="22">
                    <mxGeometry relative="1" as="geometry">
                        <Array as="points">
                            <mxPoint x="590" y="300"/>
                        </Array>
                    </mxGeometry>
                </mxCell>
                <mxCell id="10" value="i = 0&amp;nbsp;" style="whiteSpace=wrap;html=1;dashed=0;rounded=0;glass=0;sketch=0;" vertex="1" parent="1">
                    <mxGeometry x="325" y="270" width="120" height="60" as="geometry"/>
                </mxCell>
                <mxCell id="15" value="" style="edgeStyle=none;html=1;" edge="1" parent="1" source="12" target="14">
                    <mxGeometry relative="1" as="geometry"/>
                </mxCell>
                <mxCell id="12" value="Выводим&amp;nbsp;&lt;br&gt;Массив А" style="shape=parallelogram;perimeter=parallelogramPerimeter;whiteSpace=wrap;html=1;fixedSize=1;dashed=0;rounded=0;glass=0;sketch=0;" vertex="1" parent="1">
                    <mxGeometry x="125" y="270" width="120" height="60" as="geometry"/>
                </mxCell>
                <mxCell id="17" value="" style="edgeStyle=none;html=1;" edge="1" parent="1" source="14" target="16">
                    <mxGeometry relative="1" as="geometry"/>
                </mxCell>
                <mxCell id="14" value="i = i + 1" style="whiteSpace=wrap;html=1;dashed=0;rounded=0;glass=0;sketch=0;" vertex="1" parent="1">
                    <mxGeometry x="125" y="410" width="120" height="60" as="geometry"/>
                </mxCell>
                <mxCell id="19" value="" style="edgeStyle=none;html=1;entryX=0;entryY=0.5;entryDx=0;entryDy=0;" edge="1" parent="1" source="16" target="12">
                    <mxGeometry relative="1" as="geometry">
                        <mxPoint x="50" y="270" as="targetPoint"/>
                        <Array as="points">
                            <mxPoint x="50" y="570"/>
                            <mxPoint x="50" y="300"/>
                        </Array>
                    </mxGeometry>
                </mxCell>
                <mxCell id="20" style="edgeStyle=none;html=1;entryX=1;entryY=0.5;entryDx=0;entryDy=0;entryPerimeter=0;exitX=1;exitY=0.5;exitDx=0;exitDy=0;" edge="1" parent="1" source="16" target="21">
                    <mxGeometry relative="1" as="geometry">
                        <mxPoint x="320" y="620" as="targetPoint"/>
                        <mxPoint x="320" y="570" as="sourcePoint"/>
                        <Array as="points">
                            <mxPoint x="310" y="570"/>
                            <mxPoint x="310" y="640"/>
                            <mxPoint x="310" y="675"/>
                            <mxPoint x="263" y="675"/>
                        </Array>
                    </mxGeometry>
                </mxCell>
                <mxCell id="16" value="i &amp;lt;= t" style="rhombus;whiteSpace=wrap;html=1;dashed=0;rounded=0;glass=0;sketch=0;" vertex="1" parent="1">
                    <mxGeometry x="107.5" y="530" width="155" height="80" as="geometry"/>
                </mxCell>
                <mxCell id="21" value="STOP" style="html=1;dashed=0;whitespace=wrap;shape=mxgraph.dfd.start;rounded=1;glass=0;sketch=0;" vertex="1" parent="1">
                    <mxGeometry x="145" y="660" width="80" height="30" as="geometry"/>
                </mxCell>
                <mxCell id="25" value="" style="edgeStyle=none;html=1;" edge="1" parent="1" source="22" target="24">
                    <mxGeometry relative="1" as="geometry"/>
                </mxCell>
                <mxCell id="27" value="" style="edgeStyle=none;html=1;exitX=1;exitY=0.5;exitDx=0;exitDy=0;" edge="1" parent="1" source="22" target="26">
                    <mxGeometry relative="1" as="geometry">
                        <Array as="points">
                            <mxPoint x="660" y="440"/>
                            <mxPoint x="600" y="450"/>
                        </Array>
                    </mxGeometry>
                </mxCell>
                <mxCell id="22" value="&lt;span&gt;d &amp;lt;= 3&lt;/span&gt;" style="rhombus;whiteSpace=wrap;html=1;dashed=0;rounded=0;glass=0;sketch=0;" vertex="1" parent="1">
                    <mxGeometry x="510" y="360" width="160" height="70" as="geometry"/>
                </mxCell>
                <mxCell id="24" value="B(i)=A(i)" style="whiteSpace=wrap;html=1;dashed=0;rounded=0;glass=0;sketch=0;" vertex="1" parent="1">
                    <mxGeometry x="290" y="365" width="120" height="60" as="geometry"/>
                </mxCell>
                <mxCell id="26" value="B(I)" style="whiteSpace=wrap;html=1;dashed=0;rounded=0;glass=0;sketch=0;" vertex="1" parent="1">
                    <mxGeometry x="530" y="480" width="120" height="60" as="geometry"/>
                </mxCell>
            </root>
        </mxGraphModel>
    </diagram>
</mxfile>